<mxfile host="65bd71144e">
    <diagram id="jgFzbZUsfzjyKjySGhS0" name="Page-1">
        <mxGraphModel dx="1153" dy="582" grid="1" gridSize="10" guides="1" tooltips="1" connect="1" arrows="1" fold="1" page="1" pageScale="1" pageWidth="1169" pageHeight="827" math="0" shadow="0">
            <root>
                <mxCell id="0"/>
                <mxCell id="1" parent="0"/>
                <mxCell id="2" value="&lt;span style=&quot;white-space: pre;&quot;&gt;&#9;&lt;span style=&quot;white-space: pre;&quot;&gt;&#9;&lt;/span&gt;&lt;span style=&quot;white-space: pre;&quot;&gt;&#9;&lt;/span&gt;&lt;span style=&quot;white-space: pre;&quot;&gt;&#9;&lt;/span&gt;&lt;/span&gt;&amp;lt;&amp;lt;device&amp;gt;&amp;gt;&lt;br&gt;&lt;span style=&quot;white-space: pre;&quot;&gt;&#9;&lt;/span&gt;&lt;span style=&quot;white-space: pre;&quot;&gt;&#9;&lt;/span&gt;&lt;span style=&quot;white-space: pre;&quot;&gt;&#9;&lt;/span&gt;&lt;span style=&quot;white-space: pre;&quot;&gt;&#9;&lt;/span&gt;Desktop PC" style="verticalAlign=top;align=left;shape=cube;size=10;direction=south;fontStyle=0;html=1;boundedLbl=1;spacingLeft=5;" vertex="1" parent="1">
                    <mxGeometry x="530" y="280" width="320" height="210" as="geometry"/>
                </mxCell>
                <mxCell id="3" value="&amp;lt;&amp;lt;executionEnvironment&amp;gt;&amp;gt;&lt;br&gt;JVM" style="verticalAlign=top;align=center;shape=cube;size=10;direction=south;html=1;boundedLbl=1;spacingLeft=5;" vertex="1" parent="2">
                    <mxGeometry width="260" height="120" relative="1" as="geometry">
                        <mxPoint x="30" y="74" as="offset"/>
                    </mxGeometry>
                </mxCell>
                <mxCell id="6" style="edgeStyle=none;html=1;exitX=0.5;exitY=0;exitDx=0;exitDy=0;entryX=1;entryY=0.406;entryDx=0;entryDy=0;entryPerimeter=0;dashed=1;" edge="1" parent="1" source="5" target="2">
                    <mxGeometry relative="1" as="geometry"/>
                </mxCell>
                <mxCell id="7" value="&amp;lt;&amp;lt;deploy&amp;gt;&amp;gt;" style="edgeLabel;html=1;align=center;verticalAlign=middle;resizable=0;points=[];" vertex="1" connectable="0" parent="6">
                    <mxGeometry x="-0.2351" y="1" relative="1" as="geometry">
                        <mxPoint x="37" as="offset"/>
                    </mxGeometry>
                </mxCell>
                <mxCell id="5" value="&amp;lt;&amp;lt;artifact&amp;gt;&amp;gt;&lt;br&gt;&lt;br&gt;&lt;b&gt;biblionex.jar&lt;/b&gt;" style="html=1;align=center;verticalAlign=middle;dashed=0;" vertex="1" parent="1">
                    <mxGeometry x="620" y="550" width="180" height="60" as="geometry"/>
                </mxCell>
                <mxCell id="9" style="edgeStyle=none;html=1;exitX=1;exitY=0.5;exitDx=0;exitDy=0;entryX=0;entryY=0.5;entryDx=0;entryDy=0;dashed=1;" edge="1" parent="1" source="8" target="5">
                    <mxGeometry relative="1" as="geometry"/>
                </mxCell>
                <mxCell id="8" value="&amp;lt;&amp;lt;artifact&amp;gt;&amp;gt;&lt;br&gt;&lt;br&gt;&lt;b&gt;mysql-connector-java.jar&lt;/b&gt;" style="html=1;align=center;verticalAlign=middle;dashed=0;" vertex="1" parent="1">
                    <mxGeometry x="400" y="550" width="180" height="60" as="geometry"/>
                </mxCell>
                <mxCell id="12" style="edgeStyle=none;html=1;exitX=0;exitY=0;exitDx=120;exitDy=90;exitPerimeter=0;entryX=0.001;entryY=0.425;entryDx=0;entryDy=0;entryPerimeter=0;endArrow=none;endFill=0;" edge="1" parent="1" source="11" target="2">
                    <mxGeometry relative="1" as="geometry"/>
                </mxCell>
                <mxCell id="11" value="&amp;lt;&amp;lt;device&amp;gt;&amp;gt;&lt;br&gt;MySQL Server" style="verticalAlign=top;align=center;shape=cube;size=10;direction=south;html=1;boundedLbl=1;spacingLeft=5;" vertex="1" parent="1">
                    <mxGeometry x="629.9999999999998" y="100" width="170" height="120" as="geometry"/>
                </mxCell>
            </root>
        </mxGraphModel>
    </diagram>
</mxfile>